<svg width="57" height="56" viewBox="0 0 57 56" fill="none" xmlns="http://www.w3.org/2000/svg">
<path d="M1 28C1 13.0883 13.0883 1 28 1H29C43.9117 1 56 13.0883 56 28C56 42.9117 43.9117 55 29 55H28C13.0883 55 1 42.9117 1 28Z" fill="white"/>
<path d="M1 28C1 13.0883 13.0883 1 28 1H29C43.9117 1 56 13.0883 56 28C56 42.9117 43.9117 55 29 55H28C13.0883 55 1 42.9117 1 28Z" stroke="#E2E8F0" stroke-width="2"/>
<path d="M29 28C32.912 28 36.0833 24.8287 36.0833 20.9167C36.0833 17.0047 32.912 13.8333 29 13.8333C25.0879 13.8333 21.9166 17.0047 21.9166 20.9167C21.9166 24.8287 25.0879 28 29 28Z" stroke="#292D32" stroke-width="1.5" stroke-linecap="round" stroke-linejoin="round"/>
<path d="M41.1691 42.1667C41.1691 36.6842 35.715 32.25 29 32.25C22.285 32.25 16.8308 36.6842 16.8308 42.1667" stroke="#292D32" stroke-width="1.5" stroke-linecap="round" stroke-linejoin="round"/>
</svg>
